<?xml version="1.0" encoding="UTF-8"?> <!-- Generator: Adobe Illustrator 24.2.1, SVG Export Plug-In . SVG Version: 6.00 Build 0) --> <svg xmlns="http://www.w3.org/2000/svg" xmlns:xlink="http://www.w3.org/1999/xlink" version="1.1" id="Isolation_Mode" x="0px" y="0px" viewBox="0 0 750 366.2" style="enable-background:new 0 0 750 366.2;" xml:space="preserve"> <style type="text/css"> .st0{fill:#F5F5F5;} .st1{opacity:0.9706;} .st2{opacity:0.9412;} .st3{opacity:0.9118;} .st4{opacity:0.8824;} .st5{opacity:0.8529;} .st6{opacity:0.8235;} .st7{opacity:0.7941;} .st8{opacity:0.7647;} .st9{opacity:0.7353;} .st10{opacity:0.7059;} .st11{opacity:0.6765;} .st12{opacity:0.6471;} .st13{opacity:0.6176;} .st14{opacity:0.5882;} .st15{opacity:0.5588;} .st16{opacity:0.5294;} .st17{opacity:0.5;} .st18{opacity:0.4706;} .st19{opacity:0.4412;} .st20{opacity:0.4118;} .st21{opacity:0.3824;} .st22{opacity:0.3529;} .st23{opacity:0.3235;} .st24{opacity:0.2941;} .st25{opacity:0.2647;} .st26{opacity:0.2353;} .st27{opacity:0.2059;} .st28{opacity:0.1765;} .st29{opacity:0.1471;} .st30{opacity:0.1176;} .st31{opacity:8.823500e-02;} .st32{opacity:5.882400e-02;} .st33{opacity:2.941200e-02;} .st34{opacity:0;} </style> <g> <g> <path class="st0" d="M451.4,341.2c-18.1,0-32.6-13.3-44.2-40.7c-10.3-24.4-17.6-57.5-24.6-89.6c-14.7-67.4-30-137.1-74.5-135 c-33.4,1.6-52.2,42.9-70.4,82.9C222,193.4,207.1,226,184,230.5c-12.8,2.5-27.1-3.9-43.5-19.5c-10.7-10.2-24-15-39.4-14.3 c-12.3,0.6-26.1,4.7-40.8,12.3c-25.2,12.9-44.8,31.6-45,31.8l-0.6-0.6c0.2-0.2,19.9-18.9,45.2-31.9c14.9-7.6,28.7-11.8,41.2-12.4 c15.6-0.8,29.1,4.1,40,14.5c16.2,15.4,30.2,21.8,42.8,19.3c22.7-4.4,37.5-36.8,53.1-71.2c18.3-40.2,37.2-81.8,71.1-83.4 c45.1-2.1,60.5,67.9,75.3,135.7c7,32.1,14.3,65.2,24.6,89.5c11.5,27.1,25.7,40.2,43.4,40.2c31.5-0.1,54-52,77.9-107 c24.6-56.7,50-115.3,86.9-115.4c30.1,0,41,24.3,52.6,50.1c14.2,31.5,28.9,64.1,80.8,53.1l0.2,0.8c-52.6,11.2-67.4-21.7-81.7-53.6 c-11.5-25.5-22.3-49.6-51.9-49.6c-36.4,0.1-61.7,58.4-86.2,114.9C506,289,483.4,341.2,451.4,341.2z"></path> </g> <g class="st1"> <path class="st0" d="M448.1,339.2c-17.9,0-32.2-13.1-43.9-40c-10.4-24-17.8-56.8-25-88.4c-14.9-66.2-30.4-134.5-74-131.6 c-32.7,2.3-51.4,42.5-69.5,81.3c-15.7,33.7-30.5,65.6-53.4,70c-12.7,2.4-26.8-3.9-43.1-19.3c-10.7-10.1-23.8-14.8-39.1-14.1 c-12.3,0.6-25.9,4.7-40.6,12.1c-25,12.7-44.5,31.1-44.7,31.3l-0.6-0.6c0.2-0.2,19.8-18.7,44.9-31.4c14.8-7.5,28.5-11.6,40.9-12.2 c15.5-0.7,28.9,4.1,39.7,14.3c16,15.2,29.9,21.4,42.4,19.1c22.5-4.3,37.2-36,52.8-69.5c18.2-39.1,37-79.5,70.2-81.8 c44.3-3,59.8,65.8,74.9,132.3c7.1,31.6,14.5,64.3,24.9,88.3c11.5,26.6,25.6,39.5,43.1,39.5c0.1,0,0.2,0,0.2,0 c31.3-0.3,53.7-51.4,77.4-105.5c24.4-55.8,49.7-113.6,86.4-113.6c0.1,0,0.1,0,0.2,0c29.8,0.1,41.3,24.6,53.4,50.5 c15,32.1,30.6,65.3,83.2,53.3l0.2,0.8c-7.6,1.7-14.5,2.5-20.6,2.6c-37.1,0.1-50.5-28.5-63.5-56.3c-12-25.7-23.4-49.9-52.7-50.1 c-0.1,0-0.1,0-0.2,0c-36.2,0.1-61.3,57.5-85.7,113.1c-23.8,54.3-46.3,105.7-78.1,106C448.2,339.2,448.1,339.2,448.1,339.2z"></path> </g> <g class="st2"> <path class="st0" d="M444.7,337.1c-17.6,0-31.9-12.8-43.5-39.3c-10.5-23.7-18-56-25.3-87.3c-7.6-32.5-15.4-66.1-26.6-90.4 c-12.5-27.2-27.8-39.5-47-37.8c-32,2.9-50.6,41.9-68.6,79.7c-15.7,33-30.5,64.1-53.1,68.3c-12.6,2.4-26.6-3.9-42.6-19 c-10.6-10-23.7-14.7-38.9-14c-12.2,0.6-25.7,4.6-40.3,11.9C34,221.7,14.6,239.8,14.4,240l-0.6-0.6c0.2-0.2,19.7-18.4,44.6-31 c14.7-7.4,28.4-11.4,40.6-12c15.4-0.7,28.7,4.1,39.4,14.2c15.8,15,29.6,21.1,41.9,18.8c22.2-4.2,36.9-35.1,52.5-67.9 c18.1-38,36.7-77.2,69.2-80.1c19.5-1.8,35.2,10.8,47.8,38.3c11.2,24.4,19,58,26.6,90.5c7.3,31.2,14.8,63.5,25.3,87.1 c11.5,26.1,25.5,38.9,42.8,38.8c0.2,0,0.3,0,0.5,0c31.1-0.6,53.3-50.8,76.9-104c24.3-55,49.4-111.8,85.9-111.8c0.1,0,0.3,0,0.4,0 c29.5,0.3,41.5,24.9,54.2,51c15.9,32.7,32.4,66.5,85.7,53.4l0.2,0.8c-8.1,2-15.4,2.9-21.9,2.9c-37,0.1-51-28.8-64.7-56.8 c-12.6-25.8-24.5-50.2-53.5-50.5c-0.1,0-0.3,0-0.4,0c-36,0.1-61,56.6-85.1,111.3c-23.6,53.5-45.9,104-77.6,104.5 C445,337.1,444.9,337.1,444.7,337.1z"></path> </g> <g class="st3"> <path class="st0" d="M441.3,335c-17.3,0-31.4-12.6-43.1-38.6c-10.5-23.4-18.2-55.3-25.7-86.1c-7.7-31.9-15.6-64.9-26.8-88.6 c-12.4-26.5-27.6-38.3-46.3-36.2c-31.3,3.5-49.8,41.4-67.6,78c-15.7,32.2-30.4,62.6-52.8,66.7c-12.5,2.3-26.3-3.9-42.2-18.8 c-10.5-9.8-23.5-14.5-38.6-13.8c-12.1,0.5-25.6,4.5-40.1,11.7c-24.7,12.3-44,30.2-44.2,30.4l-0.6-0.6c0.2-0.2,19.5-18.1,44.3-30.5 c14.6-7.3,28.2-11.2,40.4-11.8c15.3-0.7,28.5,4.1,39.2,14.1c15.6,14.7,29.2,20.8,41.5,18.6c22-4,36.7-34.2,52.2-66.2 c17.9-36.8,36.5-74.9,68.2-78.5c19.1-2.2,34.6,9.8,47.2,36.7c11.2,23.8,19.1,56.8,26.8,88.8c7.4,30.8,15.1,62.7,25.6,86 c11.7,26,25.9,38.5,43.2,38.1c31-0.7,53-50.2,76.4-102.6c24.1-54.1,49-110,85.3-110c0.2,0,0.4,0,0.6,0c29.3,0.5,41.8,25.2,55,51.4 c16.8,33.3,34.1,67.7,88.1,53.6l0.2,0.8c-8.6,2.2-16.3,3.3-23.1,3.3c-37,0.1-51.7-29-65.9-57.3c-13.1-26-25.5-50.5-54.3-51 c-0.2,0-0.4,0-0.6,0c-35.8,0.1-60.6,55.7-84.6,109.6c-23.4,52.6-45.6,102.3-77.1,103C441.8,335,441.6,335,441.3,335z"></path> </g> <g class="st4"> <path class="st0" d="M437.9,333c-17.1,0-31.1-12.4-42.8-37.9c-10.6-23.1-18.5-54.5-26-85c-7.8-31.3-15.8-63.7-26.9-86.9 c-12.4-25.8-27.3-37.1-45.7-34.6c-30.6,4.2-48.9,40.9-66.6,76.3c-15.6,31.4-30.4,61-52.5,65c-1.7,0.3-3.4,0.5-5.1,0.5 c-11.1,0-23.2-6.2-36.8-18.9c-10.4-9.7-23.3-14.4-38.3-13.7c-12,0.5-25.4,4.4-39.8,11.5c-24.5,12.1-43.7,29.7-43.9,29.9l-0.6-0.6 c0.2-0.2,19.5-17.9,44.1-30.1c14.5-7.2,28-11.1,40.1-11.6c15.2-0.6,28.3,4.1,38.9,14c15.5,14.5,28.9,20.5,41.1,18.3 c21.7-3.9,36.4-33.4,51.9-64.6c17.8-35.6,36.1-72.5,67.2-76.8c18.8-2.6,34,8.9,46.5,35.1c11.1,23.2,19.2,55.6,27,87 c7.6,30.4,15.4,61.8,26,84.8c11.8,25.7,25.9,37.9,43.1,37.4c30.8-1,52.7-49.6,75.9-101.1c23.9-53.2,48.7-108.2,84.8-108.3 c0.3,0,0.5,0,0.8,0c29,0.7,42,25.5,55.7,51.9c17.7,33.9,35.9,68.9,90.6,53.8l0.2,0.8c-55.4,15.2-73.8-20.1-91.6-54.3 c-13.6-26.1-26.5-50.8-55-51.4c-0.3,0-0.5,0-0.8,0c-35.6,0.1-60.2,54.8-84,107.8C492.3,283.1,470.3,332,439,333 C438.6,333,438.3,333,437.9,333z"></path> </g> <g class="st5"> <path class="st0" d="M434.6,330.9c-16.8,0-30.7-12.1-42.5-37.2C381.4,271,373.4,240,365.7,210c-7.9-30.7-16.1-62.5-27.1-85.1 c-12.5-25.5-26.8-36-45-33.1c-29.9,4.8-48,40.3-65.6,74.6c-15.6,30.6-30.3,59.5-52.2,63.4c-12.4,2.2-25.9-3.8-41.4-18.2 c-10.3-9.6-23.1-14.2-38-13.6c-11.9,0.5-25.2,4.3-39.6,11.3c-24.4,11.9-43.5,29.3-43.7,29.5l-0.6-0.6c0.2-0.2,19.3-17.6,43.8-29.6 c32.5-15.9,59.7-15.1,78.5,2.5c15.3,14.2,28.6,20.1,40.7,18c21.5-3.8,36.2-32.5,51.7-62.9c17.6-34.5,35.8-70.2,66.1-75.1 c18.4-3,33.4,8,45.9,33.5c11.1,22.6,19.3,54.5,27.2,85.2c15.2,59.2,30.9,120.4,68.1,120.3c0.4,0,0.9,0,1.3,0 c30.6-1.2,52.4-49,75.4-99.6C535,178.1,559.6,124,595.4,124c0.3,0,0.7,0,1,0c28.7,0.8,42.2,25.8,56.4,52.3 c18.5,34.5,37.7,70.2,93.2,54.1l0.2,0.8c-9.5,2.8-18,4-25.6,4c-37.1,0.1-53-29.6-68.6-58.5c-14.1-26.3-27.5-51-55.7-51.9 c-0.3,0-0.7,0-1,0c-35.4,0.1-59.8,53.9-83.5,106c-23.1,50.9-44.9,98.9-76.1,100.1C435.5,330.9,435,330.9,434.6,330.9z"></path> </g> <g class="st6"> <path class="st0" d="M431.2,328.9c-37.3,0.1-53.3-60.5-68.9-119c-8-30.2-16.3-61.3-27.3-83.3c-12.4-24.8-26.5-34.8-44.4-31.5 c-29.2,5.5-47.2,39.8-64.5,73c-15.6,29.8-30.3,58-52,61.8c-12.3,2.1-25.7-3.8-41-18c-10.3-9.5-23-14-37.8-13.5 c-11.9,0.5-25.1,4.2-39.3,11.1c-24.2,11.7-43.2,28.8-43.4,29l-0.5-0.6c0.2-0.2,19.2-17.3,43.6-29.1c32.3-15.7,59.3-14.8,78,2.6 c15.1,14,28.3,19.8,40.3,17.7c21.3-3.7,35.9-31.7,51.4-61.3c17.4-33.4,35.5-67.8,65.1-73.4c18-3.4,32.8,7.1,45.3,31.9 c11.1,22,19.4,53.3,27.4,83.5c15.5,58.3,31.4,118.5,68.1,118.4c0.5,0,1,0,1.5,0c30.5-1.4,52-48.4,74.8-98.2 c23.9-52,48.5-105.9,84.9-104.7c28.5,1,42.4,26.1,57.1,52.7c19.4,35.1,39.6,71.4,95.7,54.3l0.2,0.8c-10,3-18.8,4.4-26.7,4.4 c-37.2,0.1-53.8-29.9-69.9-59.1c-14.6-26.4-28.4-51.3-56.4-52.3c-0.4,0-0.8,0-1.2,0c-35.1,0.1-59.4,53-82.9,104.2 c-22.9,50-44.6,97.2-75.6,98.7C432.3,328.9,431.7,328.9,431.2,328.9z"></path> </g> <g class="st7"> <path class="st0" d="M427.9,326.8c-36.8,0.1-53.1-59.5-68.9-117.1c-8.1-29.6-16.5-60.2-27.5-81.6c-12.4-24.1-26.3-33.6-43.7-29.9 c-28.5,6.1-46.3,39.2-63.5,71.3c-15.6,29.1-30.3,56.5-51.7,60.2c-12.2,2.1-25.5-3.7-40.6-17.7c-10.2-9.4-22.8-13.9-37.5-13.4 c-11.8,0.4-24.9,4.1-39,10.8C31.3,221,12.4,237.8,12.2,238l-0.5-0.6c0.2-0.2,19.1-17.1,43.3-28.7c32.1-15.4,58.9-14.5,77.5,2.6 c15,13.8,28,19.5,39.9,17.5c21-3.5,35.7-30.8,51.2-59.7c17.3-32.2,35.1-65.5,64-71.7c17.6-3.8,32.2,6.2,44.6,30.3 c11,21.5,19.4,52.1,27.6,81.7c16,58.3,32.5,118.5,69.9,116.4c30.3-1.7,51.7-47.8,74.3-96.7c23.4-50.6,47.6-102.9,83.1-102.9 c0.5,0,1,0,1.5,0c28.2,1.2,42.6,26.4,57.7,53c20.4,35.8,41.4,72.8,98.3,54.6l0.2,0.8c-10.4,3.3-19.7,4.8-27.9,4.8 c-37.3,0.1-54.6-30.3-71.4-59.8c-15.1-26.5-29.3-51.5-57.1-52.6c-0.5,0-0.9,0-1.4,0c-34.9,0.1-59,52.1-82.4,102.4 c-22.8,49.1-44.2,95.5-75,97.2C429.1,326.8,428.5,326.8,427.9,326.8z"></path> </g> <g class="st8"> <path class="st0" d="M424.5,324.8c-36.3,0.1-52.9-58.5-68.9-115.2c-8.2-29-16.7-59-27.7-79.8c-12.3-23.5-26-32.5-43.1-28.4 c-27.8,6.7-45.4,38.7-62.4,69.6c-15.6,28.3-30.3,55.1-51.5,58.6c-12.1,2-25.2-3.7-40.2-17.5c-12.7-11.6-36.1-21.5-76-2.6 c-23.9,11.3-42.7,27.9-42.8,28.1l-0.5-0.6c0.2-0.2,19-16.8,43-28.2c31.9-15.1,58.5-14.2,76.9,2.7c14.8,13.6,27.7,19.2,39.5,17.3 c20.8-3.4,35.4-30,50.9-58.2c17.1-31.1,34.8-63.2,62.9-70c17.2-4.1,31.6,5.3,44,28.8c11,20.9,19.5,50.9,27.7,80 c16.3,57.4,33.1,116.8,70.2,114.5c30.1-1.9,51.4-47.2,73.8-95.3c23.6-50.5,48-102.7,84.2-101.1c27.9,1.3,42.7,26.6,58.4,53.4 c21.3,36.4,43.3,74.1,100.9,54.9l0.3,0.8c-26.1,8.7-47.3,6.5-64.9-6.7c-15.5-11.7-26.4-30.4-37-48.5c-15.5-26.6-30.2-51.7-57.7-53 c-35.6-1.6-59.9,50.4-83.4,100.6c-22.6,48.2-43.9,93.8-74.5,95.7C425.9,324.8,425.2,324.8,424.5,324.8z"></path> </g> <g class="st9"> <path class="st0" d="M421.1,322.7c-35.8,0.1-52.6-57.5-68.9-113.2c-8.3-28.4-16.9-57.8-27.8-78.1c-12.3-22.8-25.8-31.3-42.5-26.8 c-27.1,7.3-44.5,38.1-61.3,67.8c-15.6,27.6-30.3,53.7-51.3,57c-12,1.9-25-3.7-39.8-17.2c-12.6-11.5-35.9-21.2-75.5-2.7 c-23.8,11.1-42.4,27.4-42.6,27.6l-0.5-0.6c0.2-0.2,18.9-16.5,42.8-27.7c31.7-14.9,58.1-13.9,76.4,2.8c14.6,13.3,27.4,18.9,39.1,17 c20.6-3.3,35.2-29.2,50.7-56.6c16.9-29.9,34.4-60.8,61.8-68.2c16.9-4.5,31.1,4.4,43.4,27.2c11,20.3,19.6,49.8,27.9,78.2 c16.2,55.4,33,112.7,68.2,112.6c0.8,0,1.5,0,2.3-0.1c30-2.1,51-46.7,73.3-93.8c23.5-49.7,47.8-101.1,83.9-99.3 c27.7,1.5,42.9,26.9,59,53.8c22.2,37.1,45.2,75.5,103.6,55.2l0.3,0.8c-26.4,9.2-48,7.1-66.1-6.2c-16-11.8-27.4-30.9-38.4-49.3 c-16-26.7-31.1-51.9-58.3-53.4c-35.5-1.8-59.7,49.4-83.1,98.8c-22.4,47.4-43.6,92.1-74,94.3C422.7,322.7,421.9,322.7,421.1,322.7z "></path> </g> <g class="st10"> <path class="st0" d="M417.8,320.7c-35.3,0.1-52.4-56.5-69-111.2c-8.8-29.2-17.1-56.7-28-76.3C308.6,111,295.3,103,279,107.8 c-26.4,7.9-43.5,37.5-60.2,66.1c-15.6,26.9-30.4,52.3-51.1,55.5c-11.9,1.8-24.8-3.7-39.4-17c-12.5-11.3-35.6-21-75-2.7 c-23.6,11-42.1,27-42.3,27.1l-0.5-0.6c0.2-0.2,18.8-16.3,42.5-27.3c31.5-14.6,57.8-13.6,75.9,2.9c14.4,13.1,27.1,18.6,38.8,16.8 c20.4-3.2,35-28.4,50.6-55.1c16.7-28.7,34-58.5,60.6-66.5c16.5-4.9,30.5,3.5,42.8,25.7c10.9,19.7,19.3,47.3,28.1,76.5 c16.9,55.8,34.3,113.4,70.7,110.6c29.8-2.4,50.7-46.1,72.8-92.4c22.9-48,46.6-97.5,81.4-97.6c0.7,0,1.4,0,2.1,0.1 c27.4,1.6,43,27.1,59.5,54.1c23.1,37.8,47.1,76.9,106.2,55.5l0.3,0.8c-26.7,9.7-48.8,7.8-67.4-5.7c-16.4-12-28.3-31.3-39.8-50.1 c-16.4-26.8-31.9-52.1-58.9-53.7c-35.5-2-59.5,48.4-82.8,97c-22.2,46.5-43.2,90.4-73.5,92.8C419.5,320.7,418.6,320.7,417.8,320.7z "></path> </g> <g class="st11"> <path class="st0" d="M414.4,318.7c-34.8,0.1-52.2-55.5-69-109.3c-13.8-44.2-26.9-85.9-48.6-97.1c-6.5-3.3-13.2-3.7-20.8-1.3 c-25.6,8.5-42.6,36.8-59,64.3c-15.6,26.2-30.4,50.9-51,54c-11.8,1.8-24.6-3.7-39.1-16.8c-12.4-11.2-35.3-20.7-74.5-2.8 c-23.5,10.8-41.9,26.5-42,26.7l-0.5-0.6c0.2-0.2,18.7-16,42.2-26.8c31.3-14.3,57.4-13.3,75.4,2.9c14.3,12.9,26.8,18.3,38.4,16.6 c20.2-3,34.9-27.6,50.4-53.6c16.5-27.6,33.5-56.1,59.4-64.7c7.6-2.5,14.8-2.1,21.4,1.3c22.1,11.3,35.1,53.2,49,97.6 c17.2,54.9,34.9,111.7,71,108.6c29.6-2.6,50.3-45.5,72.3-90.9c23.3-48.2,47.4-98,83.2-95.7c27.1,1.8,43.1,27.3,60.1,54.4 c24.1,38.5,49,78.3,108.9,55.8l0.3,0.8c-27.1,10.2-49.5,8.5-68.7-5.3c-16.9-12.1-29.2-31.8-41.2-50.9 c-16.8-26.9-32.7-52.3-59.4-54c-35.4-2.2-59.3,47.3-82.4,95.3c-22,45.6-42.9,88.7-72.9,91.4C416.3,318.6,415.4,318.7,414.4,318.7z "></path> </g> <g class="st12"> <path class="st0" d="M411.1,316.6c-34.3,0.1-52-54.5-69-107.3c-14-43.2-27.1-84-48.5-94.4c-6.4-3.1-13.1-3.3-20.4-0.7 c-24.8,9-41.6,36.2-57.8,62.5c-15.7,25.5-30.5,49.6-50.9,52.5c-11.8,1.7-24.4-3.7-38.7-16.5c-12.3-11-35.1-20.5-74-2.9 C28.5,220.4,10.2,235.9,10,236l-0.5-0.6c0.2-0.2,18.5-15.7,42-26.3c31.1-14.1,57-13,74.9,3c14.1,12.7,26.5,18,38.1,16.3 c20-2.9,34.7-26.8,50.3-52.1c16.3-26.4,33.1-53.8,58.2-62.8c7.5-2.7,14.5-2.5,21,0.7c21.7,10.6,34.9,51.6,48.9,94.9 c17.5,54.1,35.5,110,71.3,106.5c29.4-2.8,50-44.9,71.8-89.5c23.1-47.4,47.1-96.4,82.9-93.9c26.9,1.9,43.2,27.6,60.6,54.7 c12.4,19.3,25.1,39.3,42.4,51.5c19.5,13.7,42.1,15.2,69.2,4.7l0.3,0.8c-27.4,10.7-50.3,9.1-70-4.8c-17.4-12.2-30.2-32.3-42.6-51.7 c-17.2-27-33.5-52.4-60-54.3c-35.3-2.4-59.1,46.3-82.1,93.5c-21.9,44.8-42.5,87-72.4,89.9C413.1,316.6,412.1,316.6,411.1,316.6z"></path> </g> <g class="st13"> <path class="st0" d="M407.7,314.6c-33.9,0.1-51.7-53.4-69-105.2c-14.1-42.2-27.4-82.1-48.4-91.8c-6.3-2.9-12.9-3-20.1-0.1 c-24,9.5-40.5,35.5-56.5,60.7c-15.7,24.8-30.6,48.3-50.8,51.1c-11.7,1.6-24.2-3.7-38.4-16.3c-12.2-10.9-34.8-20.2-73.5-3 c-23.2,10.4-41.3,25.6-41.5,25.7L9.1,235c0.2-0.2,18.4-15.5,41.7-25.9c30.9-13.8,56.6-12.7,74.3,3.1 c13.9,12.4,26.3,17.7,37.7,16.1c19.9-2.8,34.6-26.1,50.2-50.7c16-25.3,32.6-51.4,56.9-61c7.3-2.9,14.3-2.9,20.7,0.1 c21.3,9.9,34.6,49.9,48.8,92.3c17.8,53.2,36.1,108.2,71.6,104.5c29.3-3.1,50.6-46.2,71.2-88c23-46.6,46.8-94.8,82.6-92.1 c26.6,2.1,43.3,27.8,61.1,55c12.8,19.7,26.1,40,43.8,52.3c20,13.9,43.1,15.3,70.6,4.2l0.3,0.8c-27.7,11.2-51.1,9.8-71.3-4.3 c-17.9-12.4-31.2-32.8-44-52.5c-17.6-27-34.3-52.6-60.5-54.6c-35.2-2.6-58.9,45.3-81.8,91.7c-21.7,43.9-42.2,85.4-71.9,88.5 C410,314.5,408.8,314.6,407.7,314.6z"></path> </g> <g class="st14"> <path class="st0" d="M404.3,312.5c-33.4,0.1-51.5-52.4-69.1-103.2c-14.2-41.2-27.7-80.1-48.2-89.2c-6.2-2.7-12.7-2.6-19.7,0.5 c-23.2,10-39.4,34.8-55.1,58.8c-15.8,24.2-30.7,47-50.8,49.7c-11.6,1.6-24.1-3.7-38.1-16.1c-12.1-10.7-34.6-20-73-3 c-23,10.2-41.1,25.1-41.2,25.3l-0.5-0.6c0.2-0.2,18.3-15.2,41.4-25.4c30.7-13.5,56.2-12.4,73.8,3.2c13.8,12.2,26,17.4,37.4,15.9 c19.7-2.6,34.5-25.3,50.2-49.3c15.7-24.1,32-49,55.5-59.1c7.2-3.1,14-3.3,20.4-0.5c20.9,9.2,34.4,48.3,48.7,89.7 c18.1,52.3,36.8,106.4,71.9,102.5c29.1-3.3,50.2-45.6,70.7-86.6c22.9-45.8,46.6-93.2,82.3-90.3c26.3,2.2,43.4,28,61.5,55.2 c13.3,20,27,40.7,45.2,53.2c20.6,14.1,44.1,15.3,71.9,3.7l0.3,0.8c-28.1,11.7-51.9,10.4-72.7-3.8c-18.3-12.5-32.1-33.3-45.5-53.4 c-18-27.1-35-52.7-60.9-54.9c-35.1-2.8-58.7,44.3-81.5,89.9c-21.5,43-41.8,83.7-71.3,87C406.8,312.5,405.5,312.5,404.3,312.5z"></path> </g> <g class="st15"> <path class="st0" d="M401,310.5c-32.9,0.1-51.3-51.4-69.1-101.2c-14.4-40.2-27.9-78.2-48.1-86.6c-6.1-2.6-12.5-2.2-19.4,1 c-22.4,10.5-38.3,34.1-53.7,56.9c-15.9,23.6-30.9,45.8-50.9,48.4c-11.6,1.5-23.9-3.7-37.7-15.9c-12-10.6-34.3-19.7-72.4-3.1 c-22.9,10-40.8,24.7-41,24.8l-0.5-0.6c0.2-0.1,18.2-14.9,41.2-24.9c30.5-13.3,55.8-12.2,73.3,3.3c13.6,12,25.8,17.2,37.1,15.7 c19.6-2.5,34.5-24.6,50.3-48c15.5-22.9,31.4-46.6,54-57.2c7-3.3,13.8-3.6,20.1-1c20.5,8.5,34.1,46.7,48.5,87.1 c18.4,51.4,37.4,104.6,72.1,100.4c28.9-3.5,49.9-45,70.2-85.1c22.8-45,46.4-91.6,82-88.5c26.1,2.4,43.5,28.2,62,55.5 c13.8,20.4,28,41.4,46.7,54c21.1,14.2,45.1,15.3,73.2,3.2l0.3,0.8c-28.4,12.2-52.6,11.1-74-3.3c-18.8-12.7-33.1-33.8-46.9-54.2 c-18.4-27.2-35.7-52.8-61.4-55.1c-35-3.1-58.5,43.3-81.2,88.1c-20.4,40.3-41.5,82-70.8,85.6C403.6,310.4,402.3,310.5,401,310.5z"></path> </g> <g class="st16"> <path class="st0" d="M397.6,308.5c-32.4,0.1-51-50.3-69.1-99.1c-14.5-39.2-28.2-76.3-47.9-84c-6.1-2.4-12.3-1.9-19.1,1.6 c-21.5,10.9-37.1,33.3-52.1,54.9c-16,23-31.1,44.7-51,47.1c-11.5,1.4-23.8-3.7-37.5-15.7c-11.9-10.4-34.1-19.5-71.9-3.2 c-22.7,9.8-40.5,24.2-40.7,24.3l-0.5-0.6c0.2-0.1,18.1-14.7,40.9-24.5c30.3-13,55.5-11.9,72.8,3.3c13.5,11.8,25.5,16.9,36.8,15.5 c19.5-2.4,34.5-23.9,50.4-46.8c15.1-21.7,30.8-44.2,52.4-55.2c6.9-3.5,13.6-4,19.8-1.6c20.1,7.9,33.8,45.1,48.4,84.5 c18.7,50.5,38,102.8,72.4,98.3c28.7-3.8,49.5-44.4,69.6-83.7c21.9-42.7,44.5-86.8,78-86.9c1.2,0,2.4,0.1,3.7,0.2 c25.8,2.5,43.6,28.4,62.4,55.7c14.2,20.7,29,42.1,48.1,54.9c21.7,14.4,46.1,15.3,74.6,2.7l0.3,0.7c-28.8,12.7-53.4,11.8-75.3-2.8 c-19.3-12.9-34.1-34.3-48.4-55.1c-18.7-27.2-36.4-52.9-61.8-55.4c-35-3.3-58.3,42.2-80.8,86.3c-20.2,39.5-41.1,80.3-70.3,84.1 C400.4,308.4,399,308.5,397.6,308.5z"></path> </g> <g class="st17"> <path class="st0" d="M394.3,306.5c-31.9,0.1-50.8-49.2-69.1-97c-14.6-38.2-28.4-74.3-47.8-81.4c-6-2.2-12.2-1.5-18.8,2.1 c-20.6,11.3-35.8,32.4-50.5,52.8c-16.2,22.5-31.4,43.7-51.2,46c-11.5,1.3-23.7-3.8-37.2-15.6c-11.8-10.3-33.8-19.2-71.4-3.3 C25.7,219.7,8,233.9,7.8,234l-0.5-0.6c0.2-0.1,18-14.4,40.6-24c30.1-12.8,55.1-11.6,72.3,3.4c13.4,11.6,25.3,16.7,36.6,15.4 c19.4-2.2,34.6-23.3,50.6-45.6c14.8-20.5,30-41.7,50.8-53.1c6.8-3.7,13.4-4.5,19.5-2.2c19.7,7.2,33.6,43.5,48.3,81.9 c19,49.6,38.6,100.9,72.6,96.1c28.5-4,49.2-43.8,69.1-82.2c22.6-43.5,45.9-88.5,81.3-84.9c25.6,2.7,43.6,28.5,62.8,56 c14.7,21.1,29.9,42.9,49.6,55.8c22.3,14.6,47.1,15.4,75.9,2.3l0.3,0.7c-29.1,13.2-54.2,12.5-76.7-2.3c-19.8-13-35.1-34.9-49.8-56 c-19-27.3-37-53-62.2-55.6c-34.9-3.5-58.1,41.2-80.5,84.5c-20,38.6-40.8,78.6-69.7,82.6C397.2,306.4,395.7,306.5,394.3,306.5z"></path> </g> <g class="st18"> <path class="st0" d="M390.9,304.4c-31.5,0.1-50.6-48.2-69.1-94.8c-14.8-37.2-28.7-72.4-47.6-78.9c-6-2-12-1.2-18.6,2.7 c-19.6,11.6-34.4,31.4-48.7,50.7c-16.4,22-31.8,42.8-51.5,44.9c-11.5,1.3-23.6-3.8-37-15.4c-11.7-10.1-33.5-19-70.9-3.3 c-22.4,9.4-40,23.3-40.2,23.4L6.9,233c0.2-0.1,17.8-14.1,40.3-23.5c29.9-12.5,54.7-11.3,71.8,3.5c13.2,11.5,25.1,16.4,36.4,15.2 c19.4-2.1,34.7-22.7,50.9-44.6c14.4-19.3,29.2-39.3,48.9-50.9c6.7-3.9,13.1-4.9,19.3-2.8c19.3,6.6,33.3,42,48.1,79.4 c19.3,48.7,39.2,99,72.9,94c28.3-4.2,48.8-43.1,68.6-80.8c22.5-42.7,45.7-86.9,81-83.1c25.3,2.8,43.7,28.7,63.2,56.2 c15.2,21.4,30.9,43.6,51.1,56.7c22.8,14.8,48.1,15.4,77.3,1.8l0.3,0.7c-29.5,13.8-55,13.1-78.1-1.8 c-20.3-13.2-36.1-35.4-51.3-56.9c-19.4-27.3-37.7-53.1-62.6-55.8c-34.8-3.7-57.9,40.2-80.2,82.7c-19.9,37.8-40.4,76.9-69.2,81.2 C394,304.3,392.4,304.4,390.9,304.4z"></path> </g> <g class="st19"> <path class="st0" d="M387.6,302.4c-31,0.1-50.3-47.1-69-92.7c-14.9-36.3-28.9-70.5-47.5-76.4c-5.9-1.9-11.9-0.8-18.3,3.3 C234.2,148.3,219.9,167,206,185c-16.6,21.6-32.3,42-52,44c-11.5,1.2-23.5-3.8-36.8-15.2c-11.6-10-33.3-18.7-70.4-3.4 C24.6,219.5,7.1,233.1,7,233.2l-0.5-0.6c0.2-0.1,17.7-13.8,40.1-23.1c29.7-12.2,54.3-11,71.2,3.6c13.1,11.3,25,16.2,36.2,15 c19.4-2,34.9-22.2,51.4-43.7c13.9-18.1,28.3-36.8,46.9-48.6c6.5-4.2,12.9-5.3,19-3.4c18.9,6,33,40.4,48,76.9 c19.6,47.7,39.8,97.1,73.1,91.8c28.1-4.5,48.4-42.5,68-79.3c22.3-41.9,45.4-85.3,80.7-81.3c25,2.9,43.7,28.9,63.5,56.4 c15.7,21.8,31.9,44.3,52.6,57.6c23.4,15,49.2,15.5,78.7,1.3l0.4,0.7c-29.8,14.3-55.8,13.8-79.5-1.4c-20.8-13.4-37.1-36-52.8-57.8 c-19.7-27.3-38.3-53.2-63-56.1c-34.7-3.9-57.7,39.2-79.9,80.9c-19.7,37-40.1,75.2-68.6,79.7C390.8,302.3,389.2,302.4,387.6,302.4z "></path> </g> <g class="st20"> <path class="st0" d="M384.2,300.4c-30.5,0.1-50.1-46-69-90.5c-15-35.3-29.2-68.6-47.3-74c-5.9-1.7-11.8-0.5-18.1,3.8 c-17.4,11.9-31.2,29.2-44.5,46c-16.9,21.2-32.8,41.3-52.6,43.2c-11.5,1.1-23.5-3.8-36.7-15.1c-11.5-9.8-33-18.4-69.9-3.5 c-22.1,9-39.4,22.3-39.6,22.5L6,232.2c0.2-0.1,17.6-13.6,39.8-22.6c29.5-12,53.9-10.7,70.7,3.6c13,11.1,24.8,16,36.1,14.9 c19.4-1.9,35.3-21.8,52-42.9c13.4-16.8,27.2-34.2,44.7-46.2c6.4-4.4,12.7-5.7,18.7-3.9c18.5,5.4,32.8,38.9,47.8,74.4 c19.9,46.8,40.4,95.1,73.3,89.6c27.9-4.7,48-41.9,67.5-77.9c22.2-41.2,45.2-83.7,80.5-79.5c24.8,3.1,43.8,29.1,63.9,56.6 c16.2,22.2,32.9,45.1,54.1,58.5c24,15.2,50.2,15.5,80.1,0.8l0.4,0.7c-30.2,14.8-56.6,14.5-80.9-0.9 c-21.3-13.5-38.1-36.5-54.3-58.7c-20-27.4-38.9-53.2-63.3-56.3c-34.7-4.1-57.5,38.2-79.6,79.1c-19.5,36.1-39.7,73.5-68,78.3 C387.6,300.3,385.9,300.4,384.2,300.4z"></path> </g> <g class="st21"> <path class="st0" d="M381,298.4c-12.9,0-25-8.3-36.9-25.4c-11.9-17-22.2-40.4-32.1-63c-15.1-34.3-29.4-66.7-47.1-71.5 c-5.8-1.6-11.6-0.1-17.8,4.4c-16.2,11.9-29.4,27.9-42.1,43.4c-18,21.9-33.5,40.9-53.4,42.7c-11.5,1-23.5-3.9-36.6-15 c-20.8-17.6-49.2-11.6-69.4-3.6c-21.9,8.8-39.2,21.9-39.3,22l-0.5-0.6c0.2-0.1,17.5-13.3,39.5-22.1c29.3-11.7,53.5-10.4,70.2,3.7 c13,11,24.8,15.8,36,14.8c19.6-1.8,35-20.6,52.9-42.4c12.7-15.5,25.9-31.6,42.2-43.5c6.4-4.7,12.5-6.2,18.5-4.5 c18.1,4.9,32.5,37.5,47.7,72c9.9,22.5,20.2,45.8,32.1,62.8c13.4,19.1,27,27.1,41.5,24.5c27.7-4.9,47.6-41.3,66.9-76.4 c22.1-40.4,45-82.1,80.2-77.7c24.5,3.2,43.8,29.2,64.2,56.8c16.7,22.5,33.9,45.8,55.6,59.5c24.6,15.5,51.3,15.6,81.5,0.4l0.4,0.7 c-30.5,15.3-57.4,15.2-82.3-0.4c-21.8-13.7-39.1-37.1-55.8-59.7c-20.3-27.4-39.4-53.3-63.6-56.4c-34.6-4.4-57.4,37.1-79.3,77.3 c-19.3,35.3-39.3,71.8-67.5,76.8C384.5,298.2,382.7,298.4,381,298.4z"></path> </g> <g class="st22"> <path class="st0" d="M377.6,296.4c-12.6,0-24.6-8.1-36.5-24.6c-12-16.6-22.4-39.4-32.5-61.5c-15.2-33.4-29.6-64.9-47-69.1 c-5.8-1.4-11.5,0.2-17.6,5c-14.9,11.7-27.3,26.3-39.2,40.4c-27.6,32.7-51.5,60.9-91.2,27.6c-20.6-17.3-48.8-11.5-68.9-3.6 c-21.8,8.6-38.9,21.4-39.1,21.5l-0.5-0.7c0.2-0.1,17.4-13,39.3-21.6c29-11.4,53.1-10.1,69.7,3.8c17.9,15,33.5,18.5,49.2,10.9 c14.2-6.9,27.1-22.2,40.9-38.4c12-14.2,24.4-28.8,39.4-40.6c6.3-4.9,12.3-6.6,18.3-5.1c17.8,4.3,32.2,36,47.5,69.6 c10.1,22,20.4,44.8,32.4,61.4c13.5,18.7,27,26.4,41.3,23.7c27.5-5.2,47.3-40.7,66.3-75c22-39.6,44.8-80.6,79.9-75.9 c24.3,3.3,43.8,29.4,64.5,56.9c17.2,22.9,34.9,46.6,57.1,60.4c25.2,15.7,52.3,15.6,82.9-0.1l0.4,0.7 c-69.1,35.6-107.3-15.5-141.1-60.5c-20.6-27.4-40-53.3-63.9-56.6c-34.6-4.6-57.2,36.1-79.1,75.5c-19.2,34.5-39,70.2-66.9,75.4 C381.3,296.2,379.5,296.4,377.6,296.4z"></path> </g> <g class="st23"> <path class="st0" d="M374.3,294.4c-12.4,0-24.3-7.8-36.1-23.8c-12.1-16.2-22.6-38.5-32.8-60.1c-15.3-32.4-29.8-63-46.8-66.8 c-5.7-1.3-11.4,0.6-17.4,5.6c-13.4,11.3-24.9,24.4-35.9,37.2c-14.2,16.4-27.7,31.9-42.3,38.8c-16.2,7.7-32.3,4.2-50.5-11 c-20.4-17-48.4-11.4-68.3-3.7C22.4,219,5.4,231.5,5.2,231.7L4.7,231c0.2-0.1,17.2-12.8,39-21.2c28.8-11.2,52.8-9.8,69.2,3.8 c18,15,33.8,18.4,49.7,10.8c14.4-6.9,27.8-22.3,42-38.6c11.1-12.8,22.5-25.9,36-37.2c6.2-5.2,12.1-7,18.1-5.7 c17.4,3.8,32,34.6,47.4,67.2c10.2,21.5,20.7,43.8,32.7,59.9c13.5,18.2,27,25.7,41.2,22.9c27.3-5.4,46.9-40,65.8-73.6 c21.9-38.8,44.5-79,79.6-74.1c24,3.4,43.8,29.5,64.7,57.1c17.7,23.3,35.9,47.3,58.7,61.4c25.8,15.9,53.4,15.7,84.4-0.6l0.4,0.7 c-69.9,36.8-109.3-15.2-144.1-61c-20.8-27.5-40.5-53.4-64.2-56.8c-34.5-4.8-57,35.1-78.8,73.7c-19,33.7-38.6,68.5-66.3,74 C378.2,294.2,376.2,294.4,374.3,294.4z"></path> </g> <g class="st24"> <path class="st0" d="M370.9,292.3c-12.1,0-23.9-7.6-35.7-23c-12.1-15.8-22.8-37.5-33.1-58.6c-15.4-31.5-30-61.2-46.7-64.4 c-5.7-1.1-11.3,0.9-17.2,6.2c-11.7,10.5-22,22.1-32,33.3c-14.8,16.7-28.8,32.4-43.7,39.4c-16.6,7.8-32.9,4.4-51.3-10.8 c-11.2-9.2-32-17.4-67.8-3.8c-21.5,8.2-38.4,20.5-38.5,20.6l-0.5-0.7c0.2-0.1,17.1-12.5,38.7-20.7c28.6-10.9,52.4-9.5,68.7,3.9 c39.5,32.6,63.5,5.6,93.9-28.6c10-11.2,20.3-22.8,32.1-33.4c6.1-5.4,11.9-7.5,17.9-6.4c17,3.3,31.7,33.2,47.3,64.9 c10.3,21,21,42.7,33,58.4c13.6,17.7,27,24.9,41,22c27.1-5.6,46.5-39.4,65.2-72.1c21.8-38.1,44.3-77.4,79.4-72.3 c23.8,3.6,43.8,29.6,65,57.2c35.6,46.4,75.9,99,146,61.3l0.4,0.7c-16.9,9.1-32.1,13-45.9,13c-43.9,0.1-73.9-39-101.1-74.5 c-21.1-27.5-41-53.4-64.4-56.9c-34.5-5-56.9,34.1-78.5,71.9C424,252,404.5,286,377,291.7C375,292.1,372.9,292.3,370.9,292.3z"></path> </g> <g class="st25"> <path class="st0" d="M367.6,290.3c-11.9,0-23.5-7.3-35.3-22.2c-12.2-15.4-23-36.6-33.4-57.1c-15.6-30.5-30.2-59.4-46.5-62.1 c-5.7-1-11.3,1.2-17,6.8c-9.8,9.4-18.6,19.2-27.2,28.6c-32.1,35.5-57.4,63.6-98.2,30.3c-11.1-9.1-31.8-17.1-67.3-3.8 c-21.3,8-38.1,20-38.2,20.1l-0.5-0.7c0.2-0.1,17-12.2,38.4-20.2c19.8-7.4,47.7-12.7,68.2,4c40.2,32.8,65.3,5,97.1-30.2 c8.6-9.5,17.4-19.3,27.2-28.7c6-5.7,11.8-8,17.7-7c16.7,2.8,31.5,31.9,47.1,62.6c20.3,39.8,43.2,84.9,74.2,78.1 c26.9-5.9,46.1-38.8,64.6-70.7c21.7-37.3,44.1-75.8,79.1-70.5c23.5,3.7,43.8,29.8,65.2,57.4c36.6,47.2,78.1,100.7,149,61.8 l0.4,0.7c-71.5,39.3-113.2-14.5-150.1-62c-21.3-27.5-41.5-53.4-64.7-57.1c-15.4-2.4-29.7,3.8-43.7,18.8 c-12.5,13.5-23.7,32.7-34.5,51.3c-18.6,32-37.9,65.1-65.1,71.1C371.8,290.1,369.7,290.3,367.6,290.3z"></path> </g> <g class="st26"> <path class="st0" d="M364.2,288.3c-27.9,0-49.5-40.7-68.6-76.9c-15.7-29.6-30.5-57.6-46.4-59.9c-5.7-0.8-11.2,1.6-16.9,7.4 c-7.4,7.6-14.3,15.2-21,22.6c-34,37.5-60.8,67.1-102.6,33.3c-11-8.9-31.6-16.8-66.8-3.9c-21.2,7.8-37.8,19.5-38,19.6l-0.5-0.7 c0.2-0.1,16.9-11.9,38.1-19.7c19.7-7.2,47.4-12.4,67.6,4c18.9,15.3,35.9,18.5,53.4,10c16-7.8,30.9-24.2,48.1-43.2 c6.7-7.4,13.6-15,21-22.6c5.9-6,11.6-8.5,17.6-7.6c16.4,2.4,31.2,30.5,47,60.3c20.5,38.8,43.8,82.8,74.3,75.8 c26.7-6.1,45.7-38.2,64-69.2c21.6-36.5,43.9-74.3,78.8-68.7c23.3,3.8,43.7,29.9,65.4,57.5c37.7,48,80.4,102.5,152,62.3l0.4,0.7 c-17.6,9.9-33.5,14.1-48,14.1c-44.9,0.1-76.4-40.1-105.1-76.6c-21.6-27.5-41.9-53.4-64.9-57.2c-15.4-2.5-29.7,3.5-43.6,18.1 c-12.5,13.1-23.6,32-34.4,50.2c-18.4,31.2-37.5,63.4-64.5,69.6C368.6,288.1,366.4,288.3,364.2,288.3z"></path> </g> <g class="st27"> <path class="st0" d="M681.5,285.9c-45.4,0.1-77.7-40.7-107.1-77.7c-21.8-27.5-42.3-53.5-65.1-57.3c-15.6-2.6-29.4,2.9-43.5,17.4 c-12.4,12.8-23.5,31.2-34.3,49.1c-18.2,30.4-37.1,61.7-63.9,68.2c-30.8,7.4-54.4-35.7-75.3-73.8c-15.8-28.7-30.7-55.8-46.3-57.7 c-5.7-0.7-11.1,1.9-16.7,8c-4.4,4.8-8.7,9.6-12.9,14.3c-18.8,21-35,39.2-52.1,47.9c-18.8,9.6-36.9,6.7-56.9-9.4 c-10.9-8.8-31.3-16.6-66.3-4c-21,7.6-37.5,19-37.7,19.2L3,229.4c0.2-0.1,16.8-11.7,37.9-19.2c19.5-7,47-12,67.1,4.1 c19.7,15.8,37.6,18.8,56.1,9.3c17-8.7,33.2-26.8,51.9-47.8c4.2-4.6,8.4-9.5,12.9-14.3c5.8-6.3,11.4-9,17.4-8.3 c16,1.9,31,29.2,46.9,58.1c20.7,37.8,44.3,80.6,74.4,73.4c26.5-6.3,45.2-37.6,63.4-67.8c10.7-17.9,21.9-36.4,34.4-49.2 c14.1-14.5,28.6-20.2,44.2-17.6c23,3.9,43.7,30,65.6,57.6c38.7,48.9,82.6,104.3,155.1,62.8l0.4,0.7 C712.6,281.5,696.4,285.9,681.5,285.9z"></path> </g> <g class="st28"> <path class="st0" d="M680,288.2c-14.5,0-28.7-4.1-42.6-12.3c-25.6-15.1-46.5-41.2-66.7-66.5c-22-27.5-42.8-53.4-65.2-57.4 c-15.6-2.7-29.4,2.6-43.4,16.7c-12.4,12.5-23.4,30.5-34.1,48c-18.1,29.5-36.7,60.1-63.3,66.7c-2.4,0.6-4.8,0.9-7.1,0.9 c-27,0-48.8-38.2-68.3-72.2c-15.9-27.8-30.9-54.1-46.2-55.5c-5.7-0.5-11.1,2.3-16.6,8.7l-1.4,1.7c-30,35-54.1,63.2-82.2,63.2 c-11.3,0-23.3-4.5-36.6-15.1c-19.7-15.6-46.7-10.8-65.9-4C19.6,218.4,3.2,229.6,3,229.7L2.6,229c0.2-0.1,16.6-11.4,37.6-18.8 c19.4-6.8,46.7-11.7,66.6,4.2c45.6,36.2,75.8,0.9,117.7-48l1.4-1.7c5.7-6.6,11.3-9.5,17.3-9c15.7,1.5,30.8,27.9,46.8,55.9 c21,36.7,44.7,78.4,74.5,71c26.2-6.6,44.8-36.9,62.8-66.3c10.7-17.5,21.8-35.6,34.2-48.1c14-14.1,28.5-19.6,44.1-16.9 c22.8,4,43.6,30.1,65.7,57.7c39.8,49.7,84.8,106.1,158.2,63.4l0.4,0.7C712.6,283.1,696,288.2,680,288.2z"></path> </g> <g class="st29"> <path class="st0" d="M678.2,290.6c-14.7,0-28.9-4.1-43-12.3c-26.1-15.3-47.6-41.8-68.3-67.5c-22.2-27.5-43.1-53.4-65.4-57.5 c-34.3-6.2-55.2,27.3-77.3,62.9c-17.9,28.7-36.3,58.4-62.6,65.3c-2.5,0.7-5,1-7.4,1c-26.5,0-48.5-36.9-68-69.9 c-16-26.9-31.1-52.4-46.1-53.4c-5.7-0.4-11.1,2.7-16.4,9.4c-21.5,26.8-39.6,46.6-57.8,56c-20.2,10.4-39.5,7.4-60.7-9.2 c-19.5-15.3-46.3-10.7-65.3-4.1C19,218.2,2.7,229.2,2.6,229.3l-0.5-0.7c0.2-0.1,16.5-11.1,37.3-18.3c19.2-6.6,46.3-11.3,66.1,4.2 c21,16.4,40,19.3,59.9,9.1c18.1-9.3,36.1-29,57.6-55.7c5.5-6.9,11.2-10.1,17.1-9.7c15.4,1.1,30.6,26.7,46.7,53.8 c21.2,35.7,45.2,76.2,74.5,68.5c26-6.8,44.4-36.3,62.2-64.9c10.7-17.1,21.7-34.8,34.1-47.1c14-13.7,28.4-19,44-16.2 c22.5,4.1,43.6,30.2,65.9,57.8c40.8,50.6,87.1,107.9,161.3,63.9l0.4,0.7C711.6,285.3,694.7,290.5,678.2,290.6z"></path> </g> <g class="st30"> <path class="st0" d="M676.5,292.9c-14.8,0-29.2-4.1-43.5-12.4c-26.7-15.5-48.6-42.4-69.9-68.5c-22.4-27.5-43.5-53.4-65.5-57.6 c-34.3-6.5-55.1,26.3-77.1,61.1c-17.7,27.9-35.9,56.7-62,63.8c-2.6,0.7-5.1,1-7.7,1c-26.1,0-48.1-35.6-67.8-67.5 c-16.1-26.1-31.3-50.7-46-51.3c-5.7-0.3-11.1,3-16.3,10c-28.8,38.3-50.3,55.9-71.9,58.8c-14.6,2-29.3-3-45-15.1 c-19.4-15-46-10.5-64.9-4.1c-20.5,6.9-36.6,17.6-36.8,17.7l-0.5-0.7c0.2-0.1,16.4-10.8,37-17.8c19.1-6.5,46-11,65.6,4.3 c15.5,12,30,16.9,44.4,15c21.4-2.9,42.7-20.4,71.3-58.5c5.4-7.3,11-10.6,17-10.4c15.1,0.7,30.5,25.5,46.7,51.7 c21.4,34.6,45.7,73.9,74.5,66.1c25.7-7,43.9-35.7,61.5-63.4c10.6-16.8,21.6-34.1,34-46c13.9-13.4,28.3-18.4,44-15.5 c22.3,4.2,43.5,30.3,66,57.9c21.2,26,43.1,52.9,69.7,68.3c30.3,17.6,61.3,16.3,94.7-3.8l0.4,0.7 C710.6,287.5,693.3,292.9,676.5,292.9z"></path> </g> <g class="st31"> <path class="st0" d="M674.8,295.3c-14.9,0-29.5-4.2-44.1-12.5c-27.3-15.7-50.8-44.3-71.5-69.5c-22.6-27.4-43.9-53.4-65.6-57.7 c-34.3-6.7-55,25.3-76.9,59.3c-17.5,27.1-35.5,55-61.3,62.3c-29,8.2-53.7-30.1-75.4-63.9c-16.2-25.2-31.5-49-46-49.3 c-5.7-0.1-11,3.4-16.2,10.8c-24.5,34.9-46,52.7-67.6,56c-15.4,2.4-31-2.7-47.6-15.4c-19.2-14.7-45.6-10.4-64.4-4.2 C17.9,218,1.9,228.4,1.7,228.5l-0.4-0.7c0.2-0.1,16.2-10.5,36.7-17.3c18.9-6.3,45.6-10.6,65.1,4.3c16.4,12.6,31.8,17.5,47,15.2 c21.3-3.3,42.6-21,67-55.7c5.3-7.6,10.9-11.2,16.9-11.1c14.9,0.3,30.3,24.3,46.6,49.7c21.6,33.6,46.1,71.6,74.5,63.6 c25.5-7.2,43.5-35.1,60.9-62c10.6-16.4,21.5-33.3,33.9-44.9c13.9-13,28.2-17.8,43.9-14.8c22.1,4.3,43.5,30.4,66.1,57.9 c20.7,25.2,44.1,53.7,71.3,69.3c31,17.9,62.4,16.4,96.2-4.3l0.4,0.7C709.5,289.7,692,295.3,674.8,295.3z"></path> </g> <g class="st32"> <path class="st0" d="M673.1,297.7c-15.1,0-29.9-4.2-44.6-12.6c-27.8-15.9-51.9-45-73.1-70.6c-22.7-27.4-44.2-53.3-65.7-57.7 c-34.3-7-54.9,24.3-76.7,57.5c-17.3,26.2-35.1,53.4-60.7,60.9c-2.8,0.8-5.5,1.2-8.2,1.2c-25.1,0-47.3-33.1-67.1-62.6 c-16.3-24.3-31.7-47.3-45.9-47.3c0,0,0,0,0,0c-5.8,0-11.1,3.8-16.1,11.5c-21.2,32.2-41.8,49.7-63,53.4 c-16.2,2.8-32.7-2.3-50.5-15.7c-19.1-14.4-45.3-10.3-63.9-4.3C17.3,217.9,1.4,228,1.3,228.1l-0.4-0.7c0.2-0.1,16.1-10.2,36.4-16.8 c18.8-6.1,45.2-10.2,64.6,4.4c17.6,13.2,33.9,18.3,49.8,15.6c21-3.6,41.4-21,62.5-53c5.2-8,10.7-11.9,16.8-11.9c0,0,0,0,0,0 c14.6,0,30.1,23.1,46.6,47.7c21.8,32.5,46.5,69.3,74.4,61.1c25.2-7.5,43-34.4,60.2-60.6c22-33.4,42.7-64.9,77.6-57.8 c21.8,4.4,43.4,30.5,66.2,58c21.2,25.6,45.2,54.5,72.9,70.4c31.6,18.1,63.6,16.6,97.8-4.8l0.4,0.7 C708.5,291.9,690.6,297.7,673.1,297.7z"></path> </g> <g class="st33"> <path class="st0" d="M671.3,300.1c-15.2,0-30.2-4.2-45.1-12.7c-28.4-16.2-53-45.6-74.7-71.6c-22.9-27.4-44.5-53.3-65.8-57.8 c-34.3-7.2-54.9,23.3-76.6,55.7c-17.1,25.4-34.7,51.7-59.9,59.4c-2.9,0.9-5.7,1.3-8.5,1.3c-24.7,0-46.9-31.8-66.7-60.1 c-16.3-23.3-31.7-45.4-45.6-45.4c-0.1,0-0.2,0-0.3,0c-5.8,0.2-11.1,4.2-16.1,12.3c-18.5,30.2-37.5,46.8-58.2,50.8 c-16.9,3.3-34.5-2-53.6-16.2c-19-14.1-44.9-10.1-63.4-4.3c-20,6.3-35.8,16.1-35.9,16.2L0.4,227c0.2-0.1,16-9.9,36.1-16.3 c18.6-5.9,44.9-9.9,64.1,4.4c18.9,14.1,36.2,19.3,52.9,16.1c20.4-4,39.3-20.5,57.7-50.5c5.2-8.3,10.6-12.5,16.8-12.7 c14.4-0.4,30.1,22,46.6,45.7c21.9,31.4,46.8,66.9,74.3,58.5c24.9-7.7,42.5-33.8,59.5-59.1c21.9-32.6,42.6-63.4,77.4-56 c21.6,4.6,42.3,29.3,66.3,58.1c21.7,25.9,46.2,55.3,74.5,71.4c32.3,18.4,64.8,16.7,99.3-5.2l0.4,0.7 C707.5,294.1,689.3,300.1,671.3,300.1z"></path> </g> <g class="st34"> <path class="st0" d="M669.6,302.5c-15.3,0-30.5-4.3-45.7-12.8c-29-16.4-54.1-46.3-76.3-72.7c-24-28.6-44.8-53.2-65.9-57.8 c-34.3-7.5-54.8,22.3-76.4,53.9c-16.9,24.6-34.3,50-59.3,58c-3,0.9-5.9,1.4-8.8,1.4c-24.2,0-46.4-30.5-66.3-57.7 c-16.6-22.7-32.2-44.2-46-43.4c-5.9,0.3-11.1,4.6-16,13.1c-16.1,28-34.1,44.3-53.6,48.5c-17.4,3.7-35.8-1.8-56.4-16.9 c-18.8-13.8-44.6-10-62.9-4.3c-19.9,6.1-35.5,15.6-35.7,15.7L0,226.6c0.2-0.1,15.8-9.7,35.8-15.8c18.5-5.7,44.5-9.5,63.6,4.5 c20.4,14.9,38.6,20.4,55.8,16.8c19.3-4.1,37.1-20.3,53.1-48.1c5-8.7,10.5-13.2,16.6-13.5c14.2-0.8,29.9,20.9,46.7,43.8 c22.1,30.3,47.2,64.7,74.2,56c24.7-7.9,42-33.2,58.8-57.7c21.8-31.8,42.4-61.8,77.3-54.2c21.4,4.6,42.2,29.4,66.3,58.1 c22.2,26.3,47.3,56.2,76.1,72.5c33,18.7,66,16.8,100.9-5.7l0.4,0.7C706.5,296.3,687.9,302.5,669.6,302.5z"></path> </g> </g> </svg> 