<?xml version="1.0" encoding="UTF-8"?> <svg xmlns="http://www.w3.org/2000/svg" id="Layer_1" data-name="Layer 1" viewBox="0 0 100 100"><defs><style>.cls-1{fill:#0a66fe;}.cls-2{fill:#fff;}</style></defs><path class="cls-1" d="M50,0a50,50,0,1,0,50,50A50,50,0,0,0,50,0ZM35.32,67.37A12.32,12.32,0,0,1,23,55.05c0-.21,0-.42,0-.63-.15-1.92-.35-13.23,15.53-21.57a2,2,0,0,1,2.39.44l.23.24a2,2,0,0,1-.09,2.79,15.28,15.28,0,0,0-4,6.55,12.31,12.31,0,0,1-1.77,24.5Zm29.36,0A12.32,12.32,0,0,1,52.36,55.05c0-.21,0-.42,0-.63C52.23,52.5,52,41.19,67.92,32.85a2,2,0,0,1,2.39.44l.22.24a2,2,0,0,1-.08,2.79,15.28,15.28,0,0,0-4,6.55,12.31,12.31,0,0,1-1.77,24.5Z"></path><path class="cls-2" d="M50,95A45,45,0,1,1,95,50,45.05,45.05,0,0,1,50,95ZM50,6A44,44,0,1,0,94,50,44.05,44.05,0,0,0,50,6Z"></path></svg> 