<?xml version="1.0" encoding="UTF-8"?>
<svg width="71px" height="78px" viewBox="0 0 71 78" version="1.1" xmlns="http://www.w3.org/2000/svg" xmlns:xlink="http://www.w3.org/1999/xlink">
    <title>Group</title>
    <g id="Page-1" stroke="none" stroke-width="1" fill="none" fill-rule="evenodd">
        <g id="Group" fill="#C4C4C4" fill-rule="nonzero">
            <rect id="Rectangle" x="0.1" y="0.7" width="1.3" height="1.3"></rect>
            <rect id="Rectangle" x="0.1" y="8.3" width="1.3" height="1.3"></rect>
            <rect id="Rectangle" x="0.1" y="15.9" width="1.3" height="1.3"></rect>
            <rect id="Rectangle" x="0.1" y="23.5" width="1.3" height="1.3"></rect>
            <rect id="Rectangle" x="0.1" y="31.1" width="1.3" height="1.3"></rect>
            <rect id="Rectangle" x="0.1" y="38.7" width="1.3" height="1.3"></rect>
            <rect id="Rectangle" x="0.1" y="46.3" width="1.3" height="1.3"></rect>
            <rect id="Rectangle" x="0.1" y="53.9" width="1.3" height="1.3"></rect>
            <rect id="Rectangle" x="0.1" y="61.5" width="1.3" height="1.3"></rect>
            <rect id="Rectangle" x="0.1" y="69" width="1.3" height="1.3"></rect>
            <rect id="Rectangle" x="0.1" y="76.6" width="1.3" height="1.3"></rect>
            <rect id="Rectangle" x="6.9" y="0.7" width="1.3" height="1.3"></rect>
            <rect id="Rectangle" x="6.9" y="8.3" width="1.3" height="1.3"></rect>
            <rect id="Rectangle" x="6.9" y="15.9" width="1.3" height="1.3"></rect>
            <rect id="Rectangle" x="6.9" y="23.5" width="1.3" height="1.3"></rect>
            <rect id="Rectangle" x="6.9" y="31.1" width="1.3" height="1.3"></rect>
            <rect id="Rectangle" x="6.9" y="38.7" width="1.3" height="1.3"></rect>
            <rect id="Rectangle" x="6.9" y="46.3" width="1.3" height="1.3"></rect>
            <rect id="Rectangle" x="6.9" y="53.9" width="1.3" height="1.3"></rect>
            <rect id="Rectangle" x="6.9" y="61.5" width="1.3" height="1.3"></rect>
            <rect id="Rectangle" x="6.9" y="69" width="1.3" height="1.3"></rect>
            <rect id="Rectangle" x="6.9" y="76.6" width="1.3" height="1.3"></rect>
            <rect id="Rectangle" x="13.8" y="0.7" width="1.3" height="1.3"></rect>
            <rect id="Rectangle" x="13.8" y="8.3" width="1.3" height="1.3"></rect>
            <rect id="Rectangle" x="13.8" y="15.9" width="1.3" height="1.3"></rect>
            <rect id="Rectangle" x="13.8" y="23.5" width="1.3" height="1.3"></rect>
            <rect id="Rectangle" x="13.8" y="31.1" width="1.3" height="1.3"></rect>
            <rect id="Rectangle" x="13.8" y="38.7" width="1.3" height="1.3"></rect>
            <rect id="Rectangle" x="13.8" y="46.3" width="1.3" height="1.3"></rect>
            <rect id="Rectangle" x="13.8" y="53.9" width="1.3" height="1.3"></rect>
            <rect id="Rectangle" x="13.8" y="61.5" width="1.3" height="1.3"></rect>
            <rect id="Rectangle" x="13.8" y="69" width="1.3" height="1.3"></rect>
            <rect id="Rectangle" x="13.8" y="76.6" width="1.3" height="1.3"></rect>
            <rect id="Rectangle" x="20.7" y="0.7" width="1.3" height="1.3"></rect>
            <rect id="Rectangle" x="20.7" y="8.3" width="1.3" height="1.3"></rect>
            <rect id="Rectangle" x="20.7" y="15.9" width="1.3" height="1.3"></rect>
            <rect id="Rectangle" x="20.7" y="23.5" width="1.3" height="1.3"></rect>
            <rect id="Rectangle" x="20.7" y="31.1" width="1.3" height="1.3"></rect>
            <rect id="Rectangle" x="20.7" y="38.7" width="1.3" height="1.3"></rect>
            <rect id="Rectangle" x="20.7" y="46.3" width="1.3" height="1.3"></rect>
            <rect id="Rectangle" x="20.7" y="53.9" width="1.3" height="1.3"></rect>
            <rect id="Rectangle" x="20.7" y="61.5" width="1.3" height="1.3"></rect>
            <rect id="Rectangle" x="20.7" y="69" width="1.3" height="1.3"></rect>
            <rect id="Rectangle" x="20.7" y="76.6" width="1.3" height="1.3"></rect>
            <rect id="Rectangle" x="27.6" y="0.7" width="1.3" height="1.3"></rect>
            <rect id="Rectangle" x="27.6" y="8.3" width="1.3" height="1.3"></rect>
            <rect id="Rectangle" x="27.6" y="15.9" width="1.3" height="1.3"></rect>
            <rect id="Rectangle" x="27.6" y="23.5" width="1.3" height="1.3"></rect>
            <rect id="Rectangle" x="27.6" y="31.1" width="1.3" height="1.3"></rect>
            <rect id="Rectangle" x="27.6" y="38.7" width="1.3" height="1.3"></rect>
            <rect id="Rectangle" x="27.6" y="46.3" width="1.3" height="1.3"></rect>
            <rect id="Rectangle" x="27.6" y="53.9" width="1.3" height="1.3"></rect>
            <rect id="Rectangle" x="27.6" y="61.5" width="1.3" height="1.3"></rect>
            <rect id="Rectangle" x="27.6" y="69" width="1.3" height="1.3"></rect>
            <rect id="Rectangle" x="27.6" y="76.6" width="1.3" height="1.3"></rect>
            <rect id="Rectangle" x="34.4" y="0.7" width="1.3" height="1.3"></rect>
            <rect id="Rectangle" x="34.4" y="8.3" width="1.3" height="1.3"></rect>
            <rect id="Rectangle" x="34.4" y="15.9" width="1.3" height="1.3"></rect>
            <rect id="Rectangle" x="34.4" y="23.5" width="1.3" height="1.3"></rect>
            <rect id="Rectangle" x="34.4" y="31.1" width="1.3" height="1.3"></rect>
            <rect id="Rectangle" x="34.4" y="38.7" width="1.3" height="1.3"></rect>
            <rect id="Rectangle" x="34.4" y="46.3" width="1.3" height="1.3"></rect>
            <rect id="Rectangle" x="34.4" y="53.9" width="1.3" height="1.3"></rect>
            <rect id="Rectangle" x="34.4" y="61.5" width="1.3" height="1.3"></rect>
            <rect id="Rectangle" x="34.4" y="69" width="1.3" height="1.3"></rect>
            <rect id="Rectangle" x="34.4" y="76.6" width="1.3" height="1.3"></rect>
            <rect id="Rectangle" x="41.3" y="0.7" width="1.3" height="1.3"></rect>
            <rect id="Rectangle" x="41.3" y="8.3" width="1.3" height="1.3"></rect>
            <rect id="Rectangle" x="41.3" y="15.9" width="1.3" height="1.3"></rect>
            <rect id="Rectangle" x="41.3" y="23.5" width="1.3" height="1.3"></rect>
            <rect id="Rectangle" x="41.3" y="31.1" width="1.3" height="1.3"></rect>
            <rect id="Rectangle" x="41.3" y="38.7" width="1.3" height="1.3"></rect>
            <rect id="Rectangle" x="41.3" y="46.3" width="1.3" height="1.3"></rect>
            <rect id="Rectangle" x="41.3" y="53.9" width="1.3" height="1.3"></rect>
            <rect id="Rectangle" x="41.3" y="61.5" width="1.3" height="1.3"></rect>
            <rect id="Rectangle" x="41.3" y="69" width="1.3" height="1.3"></rect>
            <rect id="Rectangle" x="41.3" y="76.6" width="1.3" height="1.3"></rect>
            <rect id="Rectangle" x="48.2" y="0.7" width="1.3" height="1.3"></rect>
            <rect id="Rectangle" x="48.2" y="8.3" width="1.3" height="1.3"></rect>
            <rect id="Rectangle" x="48.2" y="15.9" width="1.3" height="1.3"></rect>
            <rect id="Rectangle" x="48.2" y="23.5" width="1.3" height="1.3"></rect>
            <rect id="Rectangle" x="48.2" y="31.1" width="1.3" height="1.3"></rect>
            <rect id="Rectangle" x="48.2" y="38.7" width="1.3" height="1.3"></rect>
            <rect id="Rectangle" x="48.2" y="46.3" width="1.3" height="1.3"></rect>
            <rect id="Rectangle" x="48.2" y="53.9" width="1.3" height="1.3"></rect>
            <rect id="Rectangle" x="48.2" y="61.5" width="1.3" height="1.3"></rect>
            <rect id="Rectangle" x="48.2" y="69" width="1.3" height="1.3"></rect>
            <rect id="Rectangle" x="48.2" y="76.6" width="1.3" height="1.3"></rect>
            <rect id="Rectangle" x="55" y="0.7" width="1.3" height="1.3"></rect>
            <rect id="Rectangle" x="55" y="8.3" width="1.3" height="1.3"></rect>
            <rect id="Rectangle" x="55" y="15.9" width="1.3" height="1.3"></rect>
            <rect id="Rectangle" x="55" y="23.5" width="1.3" height="1.3"></rect>
            <rect id="Rectangle" x="55" y="31.1" width="1.3" height="1.3"></rect>
            <rect id="Rectangle" x="55" y="38.7" width="1.3" height="1.3"></rect>
            <rect id="Rectangle" x="55" y="46.3" width="1.3" height="1.3"></rect>
            <rect id="Rectangle" x="55" y="53.9" width="1.3" height="1.3"></rect>
            <rect id="Rectangle" x="55" y="61.5" width="1.3" height="1.3"></rect>
            <rect id="Rectangle" x="55" y="69" width="1.3" height="1.3"></rect>
            <rect id="Rectangle" x="55" y="76.6" width="1.3" height="1.3"></rect>
            <rect id="Rectangle" x="61.9" y="0.7" width="1.3" height="1.3"></rect>
            <rect id="Rectangle" x="61.9" y="8.3" width="1.3" height="1.3"></rect>
            <rect id="Rectangle" x="61.9" y="15.9" width="1.3" height="1.3"></rect>
            <rect id="Rectangle" x="61.9" y="23.5" width="1.3" height="1.3"></rect>
            <rect id="Rectangle" x="61.9" y="31.1" width="1.3" height="1.3"></rect>
            <rect id="Rectangle" x="61.9" y="38.7" width="1.3" height="1.3"></rect>
            <rect id="Rectangle" x="61.9" y="46.3" width="1.3" height="1.3"></rect>
            <rect id="Rectangle" x="61.9" y="53.9" width="1.3" height="1.3"></rect>
            <rect id="Rectangle" x="61.9" y="61.5" width="1.3" height="1.3"></rect>
            <rect id="Rectangle" x="61.9" y="69" width="1.3" height="1.3"></rect>
            <rect id="Rectangle" x="61.9" y="76.6" width="1.3" height="1.3"></rect>
            <rect id="Rectangle" x="68.8" y="0.7" width="1.3" height="1.3"></rect>
            <rect id="Rectangle" x="68.8" y="8.3" width="1.3" height="1.3"></rect>
            <rect id="Rectangle" x="68.8" y="15.9" width="1.3" height="1.3"></rect>
            <rect id="Rectangle" x="68.8" y="23.5" width="1.3" height="1.3"></rect>
            <rect id="Rectangle" x="68.8" y="31.1" width="1.3" height="1.3"></rect>
            <rect id="Rectangle" x="68.8" y="38.7" width="1.3" height="1.3"></rect>
            <rect id="Rectangle" x="68.8" y="46.3" width="1.3" height="1.3"></rect>
            <rect id="Rectangle" x="68.8" y="53.9" width="1.3" height="1.3"></rect>
            <rect id="Rectangle" x="68.8" y="61.5" width="1.3" height="1.3"></rect>
            <rect id="Rectangle" x="68.8" y="69" width="1.3" height="1.3"></rect>
            <rect id="Rectangle" x="68.8" y="76.6" width="1.3" height="1.3"></rect>
        </g>
    </g>
</svg>