<?xml version="1.0" encoding="UTF-8"?> <svg xmlns="http://www.w3.org/2000/svg" id="Layer_1" data-name="Layer 1" viewBox="0 0 50 50"><defs><style> .cls-1 { fill: #fff; } </style></defs><g id="Layer_13" data-name="Layer 13"><path class="cls-1" d="M35.8,33.13a18,18,0,1,0-21.59,0L4.9,42.44a.76.76,0,0,0-.15.89.79.79,0,0,0,.78.44l6.18-.68v5.38a.78.78,0,0,0,.48.72.8.8,0,0,0,.3.06.79.79,0,0,0,.56-.23l12-12L37,49a.79.79,0,0,0,.56.23.72.72,0,0,0,.29-.06.78.78,0,0,0,.49-.72V43.09l6.17.68a.79.79,0,0,0,.78-.44.76.76,0,0,0-.15-.89ZM8.58,18.75A16.43,16.43,0,1,1,25,35.17,16.43,16.43,0,0,1,8.58,18.75ZM13,41.62a.78.78,0,0,0-.61-.18L7.58,42,15.52,34a17.63,17.63,0,0,0,7.69,2.62l-9.94,9.94V42.21A.79.79,0,0,0,13,41.62Zm24.59-.19a.76.76,0,0,0-.86.78v4.37L26.8,36.64A17.55,17.55,0,0,0,34.48,34l8,7.95Z"></path><path class="cls-1" d="M39.86,18.75A14.86,14.86,0,1,0,25,33.61,14.86,14.86,0,0,0,39.86,18.75ZM12.29,14.84h8a.79.79,0,0,0,.56-.23L24,11.48a.78.78,0,0,0,.23-.55V8.58a1.56,1.56,0,0,1,1.57,1.56v3.91a.78.78,0,0,0,.78.79h7V16.4H27.35V18h6.26v1.56H27.35v1.56h6.26v1.57H27.35v1.56h6.26V25a.78.78,0,0,1-.78.79h-9.2l-3-1.48a.73.73,0,0,0-.35-.09H12.9a13.2,13.2,0,0,1-1.19-5.47A13.56,13.56,0,0,1,12.29,14.84Zm1.45,11h6.38l3,1.47a.73.73,0,0,0,.35.09h9.39A2.35,2.35,0,0,0,35.17,25V14.05a.78.78,0,0,0-.78-.78h-7V10.14A3.13,3.13,0,0,0,24.22,7h-.78a.78.78,0,0,0-.78.78v2.81L20,13.27H12.9a13.29,13.29,0,1,1,.84,12.52Z"></path></g></svg> 